{
    "asset" : {
        "generator" : "Khronos glTF Blender I/O v1.6.16",
        "version" : "2.0"
    },
    "scene" : 0,
    "scenes" : [
        {
            "extras" : {
                "glTF2ExportSettings" : {
                    "export_cameras" : 1,
                    "export_current_frame" : 1,
                    "export_draco_mesh_compression_enable" : 0,
                    "export_extras" : 1,
                    "export_format" : "GLTF_SEPARATE",
                    "export_lights" : 1,
                    "export_texture_dir" : "",
                    "use_active_collection" : 1,
                    "use_renderable" : 1,
                    "use_selection" : 1,
                    "use_visible" : 1
                }
            },
            "name" : "Scene",
            "nodes" : [
                0,
                1
            ]
        }
    ],
    "nodes" : [
        {
            "mesh" : 0,
            "name" : "\u7acb\u65b9\u4f53",
            "scale" : [
                1.2600022554397583,
                0.9876282811164856,
                0.6208393573760986
            ],
            "translation" : [
                509.35968017578125,
                16.9910831451416,
                -359.81146240234375
            ]
        },
        {
            "name" : "\u7a7a\u7269\u4f53",
            "rotation" : [
                0,
                -0.9999971985816956,
                0,
                -0.0023770746774971485
            ],
            "scale" : [
                325.226318359375,
                1,
                325.226318359375
            ],
            "translation" : [
                -0.0874481201171875,
                -2.181839942932129,
                -0.9749847650527954
            ]
        }
    ],
    "materials" : [
        {
            "doubleSided" : true,
            "name" : "\u6750\u8d28",
            "pbrMetallicRoughness" : {
                "baseColorFactor" : [
                    0.800000011920929,
                    0.800000011920929,
                    0.800000011920929,
                    1
                ],
                "metallicFactor" : 0,
                "roughnessFactor" : 0.5
            }
        }
    ],
    "meshes" : [
        {
            "name" : "\u7acb\u65b9\u4f53.004",
            "primitives" : [
                {
                    "attributes" : {
                        "POSITION" : 0,
                        "NORMAL" : 1,
                        "TEXCOORD_0" : 2
                    },
                    "indices" : 3,
                    "material" : 0
                }
            ]
        }
    ],
    "accessors" : [
        {
            "bufferView" : 0,
            "componentType" : 5126,
            "count" : 3604,
            "max" : [
                100.87483215332031,
                22.998262405395508,
                1184.8544921875
            ],
            "min" : [
                -677.0642700195312,
                -20.004314422607422,
                -10.93751335144043
            ],
            "type" : "VEC3"
        },
        {
            "bufferView" : 1,
            "componentType" : 5126,
            "count" : 3604,
            "type" : "VEC3"
        },
        {
            "bufferView" : 2,
            "componentType" : 5126,
            "count" : 3604,
            "type" : "VEC2"
        },
        {
            "bufferView" : 3,
            "componentType" : 5123,
            "count" : 5652,
            "type" : "SCALAR"
        }
    ],
    "bufferViews" : [
        {
            "buffer" : 0,
            "byteLength" : 43248,
            "byteOffset" : 0
        },
        {
            "buffer" : 0,
            "byteLength" : 43248,
            "byteOffset" : 43248
        },
        {
            "buffer" : 0,
            "byteLength" : 28832,
            "byteOffset" : 86496
        },
        {
            "buffer" : 0,
            "byteLength" : 11304,
            "byteOffset" : 115328
        }
    ],
    "buffers" : [
        {
            "byteLength" : 126632,
            "uri" : "odc.bin"
        }
    ]
}
