{
    "asset" : {
        "generator" : "Khronos glTF Blender I/O v1.6.16",
        "version" : "2.0"
    },
    "scene" : 0,
    "scenes" : [
        {
            "extras" : {
                "glTF2ExportSettings" : {
                    "export_cameras" : 1,
                    "export_current_frame" : 1,
                    "export_draco_mesh_compression_enable" : 0,
                    "export_extras" : 1,
                    "export_format" : "GLTF_SEPARATE",
                    "export_lights" : 1,
                    "export_texture_dir" : "",
                    "use_active_collection" : 1,
                    "use_renderable" : 1,
                    "use_selection" : 1,
                    "use_visible" : 1
                }
            },
            "name" : "Scene",
            "nodes" : [
                5
            ]
        }
    ],
    "nodes" : [
        {
            "mesh" : 0,
            "name" : "apple-logo",
            "rotation" : [
                0.7073465585708618,
                -0.027346553280949593,
                0.004850780125707388,
                0.7063211798667908
            ],
            "scale" : [
                0.003407405922189355,
                0.0484856516122818,
                0.0023043665569275618
            ],
            "translation" : [
                0.018951416015625,
                -0.5308437347412109,
                1.36376953125
            ]
        },
        {
            "children" : [
                0
            ],
            "mesh" : 1,
            "name" : "computer-apple",
            "scale" : [
                9.543011665344238,
                7.51648473739624,
                2.575249195098877
            ],
            "translation" : [
                -48.360595703125,
                53.49554443359375,
                -2.5130615234375
            ]
        },
        {
            "mesh" : 2,
            "name" : "computer-hw",
            "scale" : [
                9.543011665344238,
                7.51648473739624,
                2.415947198867798
            ],
            "translation" : [
                -40.92333984375,
                53.39633560180664,
                -2.64794921875
            ]
        },
        {
            "mesh" : 3,
            "name" : "monitor",
            "rotation" : [
                0.4990611970424652,
                -0.5001562833786011,
                0.5017111301422119,
                0.49906685948371887
            ],
            "scale" : [
                0.6735838055610657,
                1.0497276782989502,
                0.8268133401870728
            ],
            "translation" : [
                10.5,
                47.540794372558594,
                -5.3135986328125
            ]
        },
        {
            "mesh" : 4,
            "name" : "monitor.001",
            "rotation" : [
                0.4990611970424652,
                -0.5001562833786011,
                0.5017111301422119,
                0.49906685948371887
            ],
            "scale" : [
                0.6735838055610657,
                1.0497276782989502,
                0.8268133401870728
            ],
            "translation" : [
                -32.400146484375,
                47.39292526245117,
                -5.158447265625
            ]
        },
        {
            "children" : [
                1,
                2,
                3,
                4
            ],
            "mesh" : 5,
            "name" : "table",
            "rotation" : [
                0,
                -0.7071068286895752,
                0,
                0.7071068286895752
            ],
            "scale" : [
                -0.10478872805833817,
                0.1330409198999405,
                0.16330698132514954
            ],
            "translation" : [
                -244.8677520751953,
                -2,
                -279.6032409667969
            ]
        }
    ],
    "materials" : [
        {
            "doubleSided" : true,
            "name" : "wire_000000000",
            "pbrMetallicRoughness" : {
                "baseColorFactor" : [
                    0,
                    0,
                    0,
                    1
                ],
                "metallicFactor" : 0,
                "roughnessFactor" : 0.8114382028579712
            }
        },
        {
            "doubleSided" : true,
            "name" : "21___Default",
            "pbrMetallicRoughness" : {
                "baseColorFactor" : [
                    0,
                    0,
                    0,
                    1
                ],
                "metallicFactor" : 0
            }
        },
        {
            "doubleSided" : true,
            "name" : "01___Default",
            "pbrMetallicRoughness" : {
                "baseColorFactor" : [
                    0.5881999731063843,
                    0.5881999731063843,
                    0.5881999731063843,
                    1
                ],
                "metallicFactor" : 0,
                "roughnessFactor" : 0.8945907354354858
            }
        },
        {
            "doubleSided" : true,
            "name" : "White_Mat__wood_",
            "pbrMetallicRoughness" : {
                "baseColorFactor" : [
                    0.8549764752388,
                    0.8549764752388,
                    0.8549764752388,
                    1
                ],
                "metallicFactor" : 0,
                "roughnessFactor" : 0.5
            }
        }
    ],
    "meshes" : [
        {
            "name" : "apple-logo",
            "primitives" : [
                {
                    "attributes" : {
                        "POSITION" : 0,
                        "NORMAL" : 1
                    },
                    "indices" : 2,
                    "material" : 0
                }
            ]
        },
        {
            "name" : "\u7acb\u65b9\u4f53.005",
            "primitives" : [
                {
                    "attributes" : {
                        "POSITION" : 3,
                        "NORMAL" : 4,
                        "TEXCOORD_0" : 5
                    },
                    "indices" : 6
                },
                {
                    "attributes" : {
                        "POSITION" : 7,
                        "NORMAL" : 8,
                        "TEXCOORD_0" : 9
                    },
                    "indices" : 10
                }
            ]
        },
        {
            "name" : "\u7acb\u65b9\u4f53.006",
            "primitives" : [
                {
                    "attributes" : {
                        "POSITION" : 11,
                        "NORMAL" : 12,
                        "TEXCOORD_0" : 13
                    },
                    "indices" : 14
                }
            ]
        },
        {
            "name" : "monitor",
            "primitives" : [
                {
                    "attributes" : {
                        "POSITION" : 15,
                        "NORMAL" : 16,
                        "TEXCOORD_0" : 17
                    },
                    "indices" : 18,
                    "material" : 1
                },
                {
                    "attributes" : {
                        "POSITION" : 19,
                        "NORMAL" : 20,
                        "TEXCOORD_0" : 21
                    },
                    "indices" : 22,
                    "material" : 2
                }
            ]
        },
        {
            "name" : "monitor.002",
            "primitives" : [
                {
                    "attributes" : {
                        "POSITION" : 23,
                        "NORMAL" : 24,
                        "TEXCOORD_0" : 25
                    },
                    "indices" : 18,
                    "material" : 1
                },
                {
                    "attributes" : {
                        "POSITION" : 26,
                        "NORMAL" : 27,
                        "TEXCOORD_0" : 28
                    },
                    "indices" : 22,
                    "material" : 2
                }
            ]
        },
        {
            "name" : "table",
            "primitives" : [
                {
                    "attributes" : {
                        "POSITION" : 29,
                        "NORMAL" : 30,
                        "TEXCOORD_0" : 31
                    },
                    "indices" : 32,
                    "material" : 3
                }
            ]
        }
    ],
    "accessors" : [
        {
            "bufferView" : 0,
            "componentType" : 5126,
            "count" : 5380,
            "max" : [
                57.02143859863281,
                2.700007915496826,
                -1.503708004951477
            ],
            "min" : [
                -57.02058410644531,
                -2.7000091075897217,
                -135.022216796875
            ],
            "type" : "VEC3"
        },
        {
            "bufferView" : 1,
            "componentType" : 5126,
            "count" : 5380,
            "type" : "VEC3"
        },
        {
            "bufferView" : 2,
            "componentType" : 5123,
            "count" : 32256,
            "type" : "SCALAR"
        },
        {
            "bufferView" : 3,
            "componentType" : 5126,
            "count" : 20,
            "max" : [
                0.238128662109375,
                0.8482859134674072,
                1.4192047119140625
            ],
            "min" : [
                -0.238128662109375,
                -0.8482859134674072,
                -1.4192047119140625
            ],
            "type" : "VEC3"
        },
        {
            "bufferView" : 4,
            "componentType" : 5126,
            "count" : 20,
            "type" : "VEC3"
        },
        {
            "bufferView" : 5,
            "componentType" : 5126,
            "count" : 20,
            "type" : "VEC2"
        },
        {
            "bufferView" : 6,
            "componentType" : 5123,
            "count" : 30,
            "type" : "SCALAR"
        },
        {
            "bufferView" : 7,
            "componentType" : 5126,
            "count" : 4,
            "max" : [
                0.238128662109375,
                0.8482859134674072,
                1.4192047119140625
            ],
            "min" : [
                -0.238128662109375,
                -0.8482859134674072,
                1.4192047119140625
            ],
            "type" : "VEC3"
        },
        {
            "bufferView" : 8,
            "componentType" : 5126,
            "count" : 4,
            "type" : "VEC3"
        },
        {
            "bufferView" : 9,
            "componentType" : 5126,
            "count" : 4,
            "type" : "VEC2"
        },
        {
            "bufferView" : 10,
            "componentType" : 5123,
            "count" : 6,
            "type" : "SCALAR"
        },
        {
            "bufferView" : 11,
            "componentType" : 5126,
            "count" : 24,
            "max" : [
                0.238128662109375,
                0.8482859134674072,
                1.4192047119140625
            ],
            "min" : [
                -0.238128662109375,
                -0.8482859134674072,
                -1.4192047119140625
            ],
            "type" : "VEC3"
        },
        {
            "bufferView" : 12,
            "componentType" : 5126,
            "count" : 24,
            "type" : "VEC3"
        },
        {
            "bufferView" : 13,
            "componentType" : 5126,
            "count" : 24,
            "type" : "VEC2"
        },
        {
            "bufferView" : 14,
            "componentType" : 5123,
            "count" : 36,
            "type" : "SCALAR"
        },
        {
            "bufferView" : 15,
            "componentType" : 5126,
            "count" : 1002,
            "max" : [
                7.812900066375732,
                3.42930006980896,
                -0.013100000098347664
            ],
            "min" : [
                0.06120000034570694,
                -35.65950012207031,
                -26.314300537109375
            ],
            "type" : "VEC3"
        },
        {
            "bufferView" : 16,
            "componentType" : 5126,
            "count" : 1002,
            "type" : "VEC3"
        },
        {
            "bufferView" : 17,
            "componentType" : 5126,
            "count" : 1002,
            "type" : "VEC2"
        },
        {
            "bufferView" : 18,
            "componentType" : 5123,
            "count" : 3828,
            "type" : "SCALAR"
        },
        {
            "bufferView" : 19,
            "componentType" : 5126,
            "count" : 67,
            "max" : [
                2.797800064086914,
                1.343000054359436,
                -4.817200183868408
            ],
            "min" : [
                2.150599956512451,
                -33.75230026245117,
                -24.04360008239746
            ],
            "type" : "VEC3"
        },
        {
            "bufferView" : 20,
            "componentType" : 5126,
            "count" : 67,
            "type" : "VEC3"
        },
        {
            "bufferView" : 21,
            "componentType" : 5126,
            "count" : 67,
            "type" : "VEC2"
        },
        {
            "bufferView" : 22,
            "componentType" : 5123,
            "count" : 276,
            "type" : "SCALAR"
        },
        {
            "bufferView" : 23,
            "componentType" : 5126,
            "count" : 1002,
            "max" : [
                7.812900066375732,
                3.42930006980896,
                -0.013100000098347664
            ],
            "min" : [
                0.06120000034570694,
                -35.65950012207031,
                -26.314300537109375
            ],
            "type" : "VEC3"
        },
        {
            "bufferView" : 24,
            "componentType" : 5126,
            "count" : 1002,
            "type" : "VEC3"
        },
        {
            "bufferView" : 25,
            "componentType" : 5126,
            "count" : 1002,
            "type" : "VEC2"
        },
        {
            "bufferView" : 26,
            "componentType" : 5126,
            "count" : 67,
            "max" : [
                2.797800064086914,
                1.343000054359436,
                -4.817200183868408
            ],
            "min" : [
                2.150599956512451,
                -33.75230026245117,
                -24.04360008239746
            ],
            "type" : "VEC3"
        },
        {
            "bufferView" : 27,
            "componentType" : 5126,
            "count" : 67,
            "type" : "VEC3"
        },
        {
            "bufferView" : 28,
            "componentType" : 5126,
            "count" : 67,
            "type" : "VEC2"
        },
        {
            "bufferView" : 29,
            "componentType" : 5126,
            "count" : 216,
            "max" : [
                64.17060089111328,
                47.24580001831055,
                29.413799285888672
            ],
            "min" : [
                -64.17060089111328,
                -0.8708999752998352,
                -29.413799285888672
            ],
            "type" : "VEC3"
        },
        {
            "bufferView" : 30,
            "componentType" : 5126,
            "count" : 216,
            "type" : "VEC3"
        },
        {
            "bufferView" : 31,
            "componentType" : 5126,
            "count" : 216,
            "type" : "VEC2"
        },
        {
            "bufferView" : 32,
            "componentType" : 5123,
            "count" : 324,
            "type" : "SCALAR"
        }
    ],
    "bufferViews" : [
        {
            "buffer" : 0,
            "byteLength" : 64560,
            "byteOffset" : 0
        },
        {
            "buffer" : 0,
            "byteLength" : 64560,
            "byteOffset" : 64560
        },
        {
            "buffer" : 0,
            "byteLength" : 64512,
            "byteOffset" : 129120
        },
        {
            "buffer" : 0,
            "byteLength" : 240,
            "byteOffset" : 193632
        },
        {
            "buffer" : 0,
            "byteLength" : 240,
            "byteOffset" : 193872
        },
        {
            "buffer" : 0,
            "byteLength" : 160,
            "byteOffset" : 194112
        },
        {
            "buffer" : 0,
            "byteLength" : 60,
            "byteOffset" : 194272
        },
        {
            "buffer" : 0,
            "byteLength" : 48,
            "byteOffset" : 194332
        },
        {
            "buffer" : 0,
            "byteLength" : 48,
            "byteOffset" : 194380
        },
        {
            "buffer" : 0,
            "byteLength" : 32,
            "byteOffset" : 194428
        },
        {
            "buffer" : 0,
            "byteLength" : 12,
            "byteOffset" : 194460
        },
        {
            "buffer" : 0,
            "byteLength" : 288,
            "byteOffset" : 194472
        },
        {
            "buffer" : 0,
            "byteLength" : 288,
            "byteOffset" : 194760
        },
        {
            "buffer" : 0,
            "byteLength" : 192,
            "byteOffset" : 195048
        },
        {
            "buffer" : 0,
            "byteLength" : 72,
            "byteOffset" : 195240
        },
        {
            "buffer" : 0,
            "byteLength" : 12024,
            "byteOffset" : 195312
        },
        {
            "buffer" : 0,
            "byteLength" : 12024,
            "byteOffset" : 207336
        },
        {
            "buffer" : 0,
            "byteLength" : 8016,
            "byteOffset" : 219360
        },
        {
            "buffer" : 0,
            "byteLength" : 7656,
            "byteOffset" : 227376
        },
        {
            "buffer" : 0,
            "byteLength" : 804,
            "byteOffset" : 235032
        },
        {
            "buffer" : 0,
            "byteLength" : 804,
            "byteOffset" : 235836
        },
        {
            "buffer" : 0,
            "byteLength" : 536,
            "byteOffset" : 236640
        },
        {
            "buffer" : 0,
            "byteLength" : 552,
            "byteOffset" : 237176
        },
        {
            "buffer" : 0,
            "byteLength" : 12024,
            "byteOffset" : 237728
        },
        {
            "buffer" : 0,
            "byteLength" : 12024,
            "byteOffset" : 249752
        },
        {
            "buffer" : 0,
            "byteLength" : 8016,
            "byteOffset" : 261776
        },
        {
            "buffer" : 0,
            "byteLength" : 804,
            "byteOffset" : 269792
        },
        {
            "buffer" : 0,
            "byteLength" : 804,
            "byteOffset" : 270596
        },
        {
            "buffer" : 0,
            "byteLength" : 536,
            "byteOffset" : 271400
        },
        {
            "buffer" : 0,
            "byteLength" : 2592,
            "byteOffset" : 271936
        },
        {
            "buffer" : 0,
            "byteLength" : 2592,
            "byteOffset" : 274528
        },
        {
            "buffer" : 0,
            "byteLength" : 1728,
            "byteOffset" : 277120
        },
        {
            "buffer" : 0,
            "byteLength" : 648,
            "byteOffset" : 278848
        }
    ],
    "buffers" : [
        {
            "byteLength" : 279496,
            "uri" : "table.bin"
        }
    ]
}
