{
    "asset" : {
        "generator" : "Khronos glTF Blender I/O v1.6.16",
        "version" : "2.0"
    },
    "scene" : 0,
    "scenes" : [
        {
            "extras" : {
                "glTF2ExportSettings" : {
                    "export_cameras" : 1,
                    "export_current_frame" : 1,
                    "export_draco_mesh_compression_enable" : 0,
                    "export_extras" : 1,
                    "export_format" : "GLTF_SEPARATE",
                    "export_lights" : 1,
                    "export_texture_dir" : "",
                    "use_active_collection" : 1,
                    "use_renderable" : 1,
                    "use_selection" : 1,
                    "use_visible" : 1
                }
            },
            "name" : "Scene",
            "nodes" : [
                5
            ]
        }
    ],
    "nodes" : [
        {
            "mesh" : 0,
            "name" : "apple-logo",
            "rotation" : [
                0.7071307301521301,
                -0.0086539126932621,
                0.001531039597466588,
                0.7070282697677612
            ],
            "scale" : [
                0.003399851033464074,
                0.04850475490093231,
                0.0023043667897582054
            ],
            "translation" : [
                0.0033721923828125,
                -0.5308427810668945,
                1.384765625
            ]
        },
        {
            "children" : [
                0
            ],
            "mesh" : 1,
            "name" : "computer-apple",
            "rotation" : [
                0,
                -0.012266742065548897,
                0,
                0.9999248385429382
            ],
            "scale" : [
                9.54161548614502,
                7.516485214233398,
                2.5761637687683105
            ],
            "translation" : [
                -57.90576171875,
                53.49555206298828,
                -2.56640625
            ]
        },
        {
            "mesh" : 2,
            "name" : "computer-hw",
            "rotation" : [
                0,
                -0.012266742065548897,
                0,
                0.9999248385429382
            ],
            "scale" : [
                9.54161548614502,
                7.516485214233398,
                2.4168052673339844
            ],
            "translation" : [
                -51.469482421875,
                53.396339416503906,
                -2.5947265625
            ]
        },
        {
            "mesh" : 3,
            "name" : "monitor",
            "rotation" : [
                0.5001702904701233,
                -0.4989774525165558,
                0.4989844262599945,
                0.5018622875213623
            ],
            "scale" : [
                0.6736727356910706,
                1.2006685733795166,
                0.9457963705062866
            ],
            "translation" : [
                3.5828857421875,
                47.540794372558594,
                -1.5174560546875
            ]
        },
        {
            "mesh" : 4,
            "name" : "monitor.001",
            "rotation" : [
                0.5001702904701233,
                -0.4989774525165558,
                0.4989844262599945,
                0.5018622875213623
            ],
            "scale" : [
                0.6736727356910706,
                1.2006685733795166,
                0.9457963705062866
            ],
            "translation" : [
                -44.32470703125,
                47.540794372558594,
                -1.4473876953125
            ]
        },
        {
            "children" : [
                1,
                2,
                3,
                4
            ],
            "mesh" : 5,
            "name" : "table",
            "rotation" : [
                0,
                -0.7071068286895752,
                0,
                0.7071068286895752
            ],
            "scale" : [
                0.1388133019208908,
                0.16603028774261475,
                0.16330698132514954
            ],
            "translation" : [
                -223.8677520751953,
                -2,
                -279.6032409667969
            ]
        }
    ],
    "materials" : [
        {
            "doubleSided" : true,
            "name" : "wire_000000000",
            "pbrMetallicRoughness" : {
                "baseColorFactor" : [
                    0,
                    0,
                    0,
                    1
                ],
                "metallicFactor" : 0,
                "roughnessFactor" : 0.8114382028579712
            }
        },
        {
            "doubleSided" : true,
            "name" : "\u6750\u8d28.001",
            "pbrMetallicRoughness" : {
                "baseColorFactor" : [
                    0.800000011920929,
                    0.800000011920929,
                    0.800000011920929,
                    1
                ],
                "metallicFactor" : 0,
                "roughnessFactor" : 0.5
            }
        },
        {
            "doubleSided" : true,
            "name" : "\u6750\u8d28.002",
            "pbrMetallicRoughness" : {
                "baseColorFactor" : [
                    0.800000011920929,
                    0.800000011920929,
                    0.800000011920929,
                    1
                ],
                "metallicFactor" : 0,
                "roughnessFactor" : 0.5
            }
        },
        {
            "doubleSided" : true,
            "name" : "21___Default",
            "pbrMetallicRoughness" : {
                "baseColorFactor" : [
                    0,
                    0,
                    0,
                    1
                ],
                "metallicFactor" : 0
            }
        },
        {
            "doubleSided" : true,
            "name" : "01___Default",
            "pbrMetallicRoughness" : {
                "baseColorFactor" : [
                    0.5881999731063843,
                    0.5881999731063843,
                    0.5881999731063843,
                    1
                ],
                "metallicFactor" : 0,
                "roughnessFactor" : 0.8945907354354858
            }
        },
        {
            "doubleSided" : true,
            "name" : "21___Default.005",
            "pbrMetallicRoughness" : {
                "baseColorFactor" : [
                    0,
                    0,
                    0,
                    1
                ],
                "metallicFactor" : 0
            }
        },
        {
            "doubleSided" : true,
            "name" : "01___Default.005",
            "pbrMetallicRoughness" : {
                "baseColorFactor" : [
                    0.5881999731063843,
                    0.5881999731063843,
                    0.5881999731063843,
                    1
                ],
                "metallicFactor" : 0,
                "roughnessFactor" : 0.8945907354354858
            }
        },
        {
            "doubleSided" : true,
            "name" : "White_Mat__wood_",
            "pbrMetallicRoughness" : {
                "baseColorFactor" : [
                    0.8549764752388,
                    0.8549764752388,
                    0.8549764752388,
                    1
                ],
                "metallicFactor" : 0,
                "roughnessFactor" : 0.5
            }
        }
    ],
    "meshes" : [
        {
            "name" : "apple-logo",
            "primitives" : [
                {
                    "attributes" : {
                        "POSITION" : 0,
                        "NORMAL" : 1
                    },
                    "indices" : 2,
                    "material" : 0
                }
            ]
        },
        {
            "name" : "\u7acb\u65b9\u4f53.005",
            "primitives" : [
                {
                    "attributes" : {
                        "POSITION" : 3,
                        "NORMAL" : 4,
                        "TEXCOORD_0" : 5
                    },
                    "indices" : 6,
                    "material" : 1
                }
            ]
        },
        {
            "name" : "\u7acb\u65b9\u4f53.006",
            "primitives" : [
                {
                    "attributes" : {
                        "POSITION" : 7,
                        "NORMAL" : 8,
                        "TEXCOORD_0" : 9
                    },
                    "indices" : 6,
                    "material" : 2
                }
            ]
        },
        {
            "name" : "monitor",
            "primitives" : [
                {
                    "attributes" : {
                        "POSITION" : 10,
                        "NORMAL" : 11,
                        "TEXCOORD_0" : 12
                    },
                    "indices" : 13,
                    "material" : 3
                },
                {
                    "attributes" : {
                        "POSITION" : 14,
                        "NORMAL" : 15,
                        "TEXCOORD_0" : 16
                    },
                    "indices" : 17,
                    "material" : 4
                }
            ]
        },
        {
            "name" : "monitor.001",
            "primitives" : [
                {
                    "attributes" : {
                        "POSITION" : 18,
                        "NORMAL" : 19,
                        "TEXCOORD_0" : 20
                    },
                    "indices" : 13,
                    "material" : 5
                },
                {
                    "attributes" : {
                        "POSITION" : 21,
                        "NORMAL" : 22,
                        "TEXCOORD_0" : 23
                    },
                    "indices" : 17,
                    "material" : 6
                }
            ]
        },
        {
            "name" : "table",
            "primitives" : [
                {
                    "attributes" : {
                        "POSITION" : 24,
                        "NORMAL" : 25,
                        "TEXCOORD_0" : 26
                    },
                    "indices" : 27,
                    "material" : 7
                }
            ]
        }
    ],
    "accessors" : [
        {
            "bufferView" : 0,
            "componentType" : 5126,
            "count" : 5380,
            "max" : [
                57.02143859863281,
                2.700007915496826,
                -1.503708004951477
            ],
            "min" : [
                -57.02058410644531,
                -2.7000091075897217,
                -135.022216796875
            ],
            "type" : "VEC3"
        },
        {
            "bufferView" : 1,
            "componentType" : 5126,
            "count" : 5380,
            "type" : "VEC3"
        },
        {
            "bufferView" : 2,
            "componentType" : 5123,
            "count" : 32256,
            "type" : "SCALAR"
        },
        {
            "bufferView" : 3,
            "componentType" : 5126,
            "count" : 24,
            "max" : [
                0.238128662109375,
                0.8482859134674072,
                1.4192047119140625
            ],
            "min" : [
                -0.238128662109375,
                -0.8482859134674072,
                -1.4192047119140625
            ],
            "type" : "VEC3"
        },
        {
            "bufferView" : 4,
            "componentType" : 5126,
            "count" : 24,
            "type" : "VEC3"
        },
        {
            "bufferView" : 5,
            "componentType" : 5126,
            "count" : 24,
            "type" : "VEC2"
        },
        {
            "bufferView" : 6,
            "componentType" : 5123,
            "count" : 36,
            "type" : "SCALAR"
        },
        {
            "bufferView" : 7,
            "componentType" : 5126,
            "count" : 24,
            "max" : [
                0.238128662109375,
                0.8482859134674072,
                1.4192047119140625
            ],
            "min" : [
                -0.238128662109375,
                -0.8482859134674072,
                -1.4192047119140625
            ],
            "type" : "VEC3"
        },
        {
            "bufferView" : 8,
            "componentType" : 5126,
            "count" : 24,
            "type" : "VEC3"
        },
        {
            "bufferView" : 9,
            "componentType" : 5126,
            "count" : 24,
            "type" : "VEC2"
        },
        {
            "bufferView" : 10,
            "componentType" : 5126,
            "count" : 1002,
            "max" : [
                7.812900066375732,
                3.42930006980896,
                -0.013100000098347664
            ],
            "min" : [
                0.06120000034570694,
                -35.65950012207031,
                -26.314300537109375
            ],
            "type" : "VEC3"
        },
        {
            "bufferView" : 11,
            "componentType" : 5126,
            "count" : 1002,
            "type" : "VEC3"
        },
        {
            "bufferView" : 12,
            "componentType" : 5126,
            "count" : 1002,
            "type" : "VEC2"
        },
        {
            "bufferView" : 13,
            "componentType" : 5123,
            "count" : 3828,
            "type" : "SCALAR"
        },
        {
            "bufferView" : 14,
            "componentType" : 5126,
            "count" : 67,
            "max" : [
                2.797800064086914,
                1.343000054359436,
                -4.817200183868408
            ],
            "min" : [
                2.150599956512451,
                -33.75230026245117,
                -24.04360008239746
            ],
            "type" : "VEC3"
        },
        {
            "bufferView" : 15,
            "componentType" : 5126,
            "count" : 67,
            "type" : "VEC3"
        },
        {
            "bufferView" : 16,
            "componentType" : 5126,
            "count" : 67,
            "type" : "VEC2"
        },
        {
            "bufferView" : 17,
            "componentType" : 5123,
            "count" : 276,
            "type" : "SCALAR"
        },
        {
            "bufferView" : 18,
            "componentType" : 5126,
            "count" : 1002,
            "max" : [
                7.812900066375732,
                3.42930006980896,
                -0.013100000098347664
            ],
            "min" : [
                0.06120000034570694,
                -35.65950012207031,
                -26.314300537109375
            ],
            "type" : "VEC3"
        },
        {
            "bufferView" : 19,
            "componentType" : 5126,
            "count" : 1002,
            "type" : "VEC3"
        },
        {
            "bufferView" : 20,
            "componentType" : 5126,
            "count" : 1002,
            "type" : "VEC2"
        },
        {
            "bufferView" : 21,
            "componentType" : 5126,
            "count" : 67,
            "max" : [
                2.797800064086914,
                1.343000054359436,
                -4.817200183868408
            ],
            "min" : [
                2.150599956512451,
                -33.75230026245117,
                -24.04360008239746
            ],
            "type" : "VEC3"
        },
        {
            "bufferView" : 22,
            "componentType" : 5126,
            "count" : 67,
            "type" : "VEC3"
        },
        {
            "bufferView" : 23,
            "componentType" : 5126,
            "count" : 67,
            "type" : "VEC2"
        },
        {
            "bufferView" : 24,
            "componentType" : 5126,
            "count" : 216,
            "max" : [
                64.17060089111328,
                47.24580001831055,
                29.413799285888672
            ],
            "min" : [
                -64.17060089111328,
                -0.8708999752998352,
                -29.413799285888672
            ],
            "type" : "VEC3"
        },
        {
            "bufferView" : 25,
            "componentType" : 5126,
            "count" : 216,
            "type" : "VEC3"
        },
        {
            "bufferView" : 26,
            "componentType" : 5126,
            "count" : 216,
            "type" : "VEC2"
        },
        {
            "bufferView" : 27,
            "componentType" : 5123,
            "count" : 324,
            "type" : "SCALAR"
        }
    ],
    "bufferViews" : [
        {
            "buffer" : 0,
            "byteLength" : 64560,
            "byteOffset" : 0
        },
        {
            "buffer" : 0,
            "byteLength" : 64560,
            "byteOffset" : 64560
        },
        {
            "buffer" : 0,
            "byteLength" : 64512,
            "byteOffset" : 129120
        },
        {
            "buffer" : 0,
            "byteLength" : 288,
            "byteOffset" : 193632
        },
        {
            "buffer" : 0,
            "byteLength" : 288,
            "byteOffset" : 193920
        },
        {
            "buffer" : 0,
            "byteLength" : 192,
            "byteOffset" : 194208
        },
        {
            "buffer" : 0,
            "byteLength" : 72,
            "byteOffset" : 194400
        },
        {
            "buffer" : 0,
            "byteLength" : 288,
            "byteOffset" : 194472
        },
        {
            "buffer" : 0,
            "byteLength" : 288,
            "byteOffset" : 194760
        },
        {
            "buffer" : 0,
            "byteLength" : 192,
            "byteOffset" : 195048
        },
        {
            "buffer" : 0,
            "byteLength" : 12024,
            "byteOffset" : 195240
        },
        {
            "buffer" : 0,
            "byteLength" : 12024,
            "byteOffset" : 207264
        },
        {
            "buffer" : 0,
            "byteLength" : 8016,
            "byteOffset" : 219288
        },
        {
            "buffer" : 0,
            "byteLength" : 7656,
            "byteOffset" : 227304
        },
        {
            "buffer" : 0,
            "byteLength" : 804,
            "byteOffset" : 234960
        },
        {
            "buffer" : 0,
            "byteLength" : 804,
            "byteOffset" : 235764
        },
        {
            "buffer" : 0,
            "byteLength" : 536,
            "byteOffset" : 236568
        },
        {
            "buffer" : 0,
            "byteLength" : 552,
            "byteOffset" : 237104
        },
        {
            "buffer" : 0,
            "byteLength" : 12024,
            "byteOffset" : 237656
        },
        {
            "buffer" : 0,
            "byteLength" : 12024,
            "byteOffset" : 249680
        },
        {
            "buffer" : 0,
            "byteLength" : 8016,
            "byteOffset" : 261704
        },
        {
            "buffer" : 0,
            "byteLength" : 804,
            "byteOffset" : 269720
        },
        {
            "buffer" : 0,
            "byteLength" : 804,
            "byteOffset" : 270524
        },
        {
            "buffer" : 0,
            "byteLength" : 536,
            "byteOffset" : 271328
        },
        {
            "buffer" : 0,
            "byteLength" : 2592,
            "byteOffset" : 271864
        },
        {
            "buffer" : 0,
            "byteLength" : 2592,
            "byteOffset" : 274456
        },
        {
            "buffer" : 0,
            "byteLength" : 1728,
            "byteOffset" : 277048
        },
        {
            "buffer" : 0,
            "byteLength" : 648,
            "byteOffset" : 278776
        }
    ],
    "buffers" : [
        {
            "byteLength" : 279424,
            "uri" : "table.bin"
        }
    ]
}
